<svg width="104" height="26" viewBox="0 0 104 26" fill="white" xmlns="http://www.w3.org/2000/svg">
<path d="M74 26H77V0H74V26Z"/>
<path d="M83 18L85 26H89L87 18L84 8L81 0H77L80 8L83 18Z"/>
<path d="M93 26L95 18L98 8L100 0H96L94 8L91 18L89 26H93Z"/>
<path d="M100 26H104V0H100V26Z"/>
<path d="M30 8C31.9094 10.3229 35.9675 11.5644 39 12C38.1015 11.8911 36.8985 12 36 12C31.4325 12 27.7862 13.8623 27 18C26.9251 18.5807 27 19.3467 27 20C27 21.9963 27.7645 24.403 29 26H36C32.8177 26 31 24.0852 31 21C31 20.3104 30.7379 18.617 31 18C31.7862 16.0037 33.6414 15.0726 36 15L39 18L45 26H50L44 18C42.0158 15.7134 38.0325 14.3993 35 14C35.8611 14.1089 37.1389 14 38 14C42.6798 14 46.2887 12.2466 47 8C47.0749 7.49186 47 6.58073 47 6C47 4.00372 46.2729 1.59702 45 0H38C41.1823 0 43 2.91485 43 6C43 6.65333 43.1872 7.41926 43 8C42.2887 9.99627 40.3212 10.8185 38 11L35 8L29 0H24L30 8Z"/>
<path fill-rule="evenodd" clip-rule="evenodd" d="M13 26C5.2651 26 0 20.368 0 13C0 5.63197 5.21015 0 13 0C20.7899 0 26 5.63197 26 13C26 20.368 20.7349 26 13 26ZM13 23C18.376 23 22 18.8409 22 13C22 7.15713 18.376 3 13 3C7.62399 3 4 7.15713 4 13C4 18.8409 7.62399 23 13 23Z"/>
<path fill-rule="evenodd" clip-rule="evenodd" d="M61 23C65.1145 23 67.6833 21.0521 69 17L72 18C70.08 23.3156 66.4859 26 61 26C53.7587 26 48 21.0515 48 13C48 5.8956 52.9233 0 60 0C66.967 0 71 3.68454 71 10C71 10.8963 71.2743 11.6857 71 13H52C52.055 18.9483 55.7886 23 61 23ZM60 3C55.5565 3 52.4939 6.31516 52 11H68V10C68 5.73697 64.3888 3 60 3Z"/>
</svg>
